<?xml version="1.0" encoding="UTF-8"?>
<svg xmlns="http://www.w3.org/2000/svg" xmlns:xlink="http://www.w3.org/1999/xlink" width="128px" height="128px" viewBox="0 0 128 128" version="1.1">
<g id="surface1">
<path style=" stroke:none;fill-rule:nonzero;fill:rgb(64.705882%,64.705882%,64.705882%);fill-opacity:1;" d="M 0 0 C 42.238281 0 84.480469 0 128 0 C 128 42.238281 128 84.480469 128 128 C 85.761719 128 43.519531 128 0 128 C 0 85.761719 0 43.519531 0 0 Z M 0 0 "/>
<path style=" stroke:none;fill-rule:nonzero;fill:rgb(0.392157%,0.392157%,0.392157%);fill-opacity:1;" d="M 25.835938 30.339844 C 29.484375 30.300781 33.128906 30.269531 36.777344 30.25 C 37.207031 30.246094 37.640625 30.246094 38.070312 30.242188 C 38.15625 30.242188 38.242188 30.242188 38.328125 30.242188 C 39.71875 30.234375 41.105469 30.21875 42.492188 30.203125 C 43.917969 30.1875 45.339844 30.175781 46.765625 30.171875 C 47.566406 30.171875 48.367188 30.164062 49.164062 30.152344 C 49.917969 30.140625 50.671875 30.136719 51.425781 30.140625 C 51.703125 30.140625 51.976562 30.136719 52.253906 30.128906 C 54.285156 30.082031 54.285156 30.082031 54.875 30.515625 C 55.28125 30.929688 55.566406 31.394531 55.832031 31.90625 C 55.980469 32.195312 56.164062 32.457031 56.351562 32.71875 C 56.472656 32.902344 56.589844 33.085938 56.710938 33.265625 C 56.851562 33.480469 56.992188 33.695312 57.136719 33.910156 C 57.210938 34.019531 57.285156 34.132812 57.363281 34.25 C 57.800781 34.90625 58.246094 35.5625 58.6875 36.214844 C 58.785156 36.355469 58.882812 36.496094 58.976562 36.640625 C 59.171875 36.925781 59.367188 37.210938 59.5625 37.496094 C 59.988281 38.125 60.414062 38.753906 60.839844 39.378906 C 61.070312 39.71875 61.300781 40.0625 61.53125 40.402344 C 61.625 40.539062 61.71875 40.675781 61.8125 40.816406 C 61.859375 40.882812 61.90625 40.953125 61.957031 41.027344 C 62.753906 42.207031 63.554688 43.382812 64.355469 44.5625 C 64.78125 44.054688 65.144531 43.511719 65.507812 42.957031 C 65.574219 42.855469 65.640625 42.753906 65.707031 42.648438 C 65.925781 42.316406 66.144531 41.984375 66.363281 41.652344 C 66.515625 41.417969 66.671875 41.183594 66.824219 40.953125 C 67.144531 40.464844 67.464844 39.976562 67.785156 39.492188 C 68.472656 38.441406 69.164062 37.394531 69.851562 36.347656 C 70.253906 35.738281 70.253906 35.738281 70.652344 35.128906 C 70.785156 34.925781 70.921875 34.730469 71.0625 34.53125 C 71.46875 33.949219 71.773438 33.390625 72.03125 32.726562 C 72.441406 31.785156 72.917969 30.875 73.835938 30.339844 C 75.625 29.691406 77.8125 29.960938 79.675781 30.015625 C 80.453125 30.035156 81.226562 30.039062 82.003906 30.042969 C 83.300781 30.050781 84.597656 30.070312 85.898438 30.097656 C 87.234375 30.128906 88.570312 30.152344 89.90625 30.164062 C 89.988281 30.164062 90.070312 30.167969 90.15625 30.167969 C 90.570312 30.171875 90.984375 30.175781 91.402344 30.179688 C 94.832031 30.210938 98.257812 30.269531 101.6875 30.339844 C 101.171875 31.253906 101.171875 31.253906 100.886719 31.644531 C 100.824219 31.726562 100.765625 31.808594 100.703125 31.894531 C 100.640625 31.980469 100.578125 32.066406 100.511719 32.15625 C 100.375 32.34375 100.234375 32.535156 100.097656 32.722656 C 100.027344 32.820312 99.957031 32.914062 99.886719 33.015625 C 99.550781 33.476562 99.214844 33.9375 98.882812 34.398438 C 98.816406 34.488281 98.753906 34.578125 98.6875 34.671875 C 98.304688 35.199219 97.921875 35.734375 97.539062 36.265625 C 97.097656 36.890625 96.648438 37.511719 96.199219 38.132812 C 96.136719 38.222656 96.070312 38.3125 96.003906 38.40625 C 95.675781 38.859375 95.347656 39.316406 95.015625 39.769531 C 94.390625 40.632812 93.769531 41.5 93.15625 42.371094 C 92.476562 43.332031 91.789062 44.289062 91.097656 45.242188 C 90.777344 45.6875 90.453125 46.132812 90.132812 46.578125 C 90.003906 46.753906 89.875 46.933594 89.75 47.109375 C 89.683594 47.199219 89.621094 47.289062 89.554688 47.378906 C 88.976562 48.179688 88.976562 48.179688 88.785156 48.445312 C 88.65625 48.621094 88.527344 48.800781 88.398438 48.976562 C 88.078125 49.421875 87.753906 49.871094 87.433594 50.316406 C 86.808594 51.179688 86.183594 52.046875 85.570312 52.917969 C 84.894531 53.882812 84.203125 54.835938 83.511719 55.789062 C 83.191406 56.234375 82.871094 56.679688 82.546875 57.125 C 82.160156 57.664062 81.769531 58.203125 81.378906 58.742188 C 80.601562 59.820312 79.824219 60.902344 79.050781 61.984375 C 78.996094 62.054688 78.9375 62.125 78.878906 62.195312 C 78.71875 62.398438 78.578125 62.585938 78.460938 62.816406 C 78.535156 63.390625 79.042969 63.914062 79.386719 64.378906 C 79.527344 64.570312 79.664062 64.761719 79.804688 64.953125 C 79.878906 65.050781 79.949219 65.148438 80.023438 65.25 C 80.351562 65.699219 80.679688 66.148438 81.007812 66.601562 C 81.070312 66.6875 81.132812 66.773438 81.199219 66.863281 C 81.664062 67.507812 82.109375 68.160156 82.554688 68.816406 C 83.085938 69.59375 83.632812 70.355469 84.207031 71.105469 C 84.660156 71.707031 85.089844 72.324219 85.511719 72.949219 C 86.046875 73.742188 86.605469 74.515625 87.183594 75.277344 C 87.644531 75.886719 88.078125 76.507812 88.507812 77.140625 C 88.980469 77.835938 89.472656 78.515625 89.964844 79.195312 C 90.402344 79.796875 90.832031 80.402344 91.257812 81.007812 C 91.742188 81.695312 92.230469 82.378906 92.726562 83.058594 C 93.34375 83.910156 93.949219 84.769531 94.550781 85.632812 C 95.074219 86.386719 95.609375 87.128906 96.148438 87.871094 C 96.636719 88.546875 97.117188 89.226562 97.597656 89.910156 C 98.023438 90.515625 98.453125 91.113281 98.890625 91.710938 C 99.503906 92.5625 100.109375 93.417969 100.710938 94.28125 C 101.261719 95.074219 101.828125 95.855469 102.398438 96.632812 C 102.460938 96.71875 102.519531 96.800781 102.582031 96.886719 C 102.636719 96.957031 102.691406 97.03125 102.746094 97.105469 C 102.875 97.304688 102.875 97.304688 102.992188 97.660156 C 99.289062 97.707031 95.582031 97.746094 91.878906 97.769531 C 91.4375 97.769531 91 97.773438 90.5625 97.777344 C 90.433594 97.777344 90.433594 97.777344 90.300781 97.777344 C 88.890625 97.789062 87.480469 97.804688 86.070312 97.824219 C 84.621094 97.84375 83.175781 97.855469 81.726562 97.859375 C 80.835938 97.863281 79.941406 97.871094 79.050781 97.890625 C 78.363281 97.902344 77.679688 97.902344 76.996094 97.902344 C 76.714844 97.902344 76.433594 97.90625 76.152344 97.914062 C 74.09375 97.972656 74.09375 97.972656 73.46875 97.449219 C 73.027344 96.945312 72.710938 96.386719 72.421875 95.785156 C 72.246094 95.421875 72.03125 95.097656 71.804688 94.765625 C 71.660156 94.539062 71.515625 94.308594 71.371094 94.082031 C 70.53125 92.761719 69.675781 91.453125 68.820312 90.144531 C 68.371094 89.453125 67.921875 88.757812 67.472656 88.0625 C 67.152344 87.5625 66.828125 87.0625 66.503906 86.566406 C 66.226562 86.132812 65.945312 85.703125 65.667969 85.269531 C 65.554688 85.09375 65.441406 84.917969 65.324219 84.742188 C 65.246094 84.613281 65.246094 84.613281 65.160156 84.484375 C 64.820312 83.957031 64.46875 83.429688 64.109375 82.910156 C 64 82.726562 64 82.726562 64 82.488281 C 63.921875 82.488281 63.84375 82.488281 63.761719 82.488281 C 63.738281 82.566406 63.710938 82.640625 63.683594 82.722656 C 63.46875 83.214844 63.179688 83.652344 62.890625 84.105469 C 62.757812 84.304688 62.628906 84.507812 62.5 84.710938 C 62.433594 84.816406 62.367188 84.917969 62.300781 85.023438 C 61.996094 85.503906 61.695312 85.980469 61.394531 86.460938 C 61.273438 86.648438 61.15625 86.835938 61.035156 87.023438 C 60.800781 87.394531 60.566406 87.765625 60.335938 88.136719 C 59.632812 89.25 58.925781 90.363281 58.21875 91.472656 C 57.773438 92.171875 57.332031 92.871094 56.890625 93.570312 C 56.351562 94.421875 55.8125 95.269531 55.273438 96.117188 C 55.203125 96.230469 55.128906 96.34375 55.058594 96.460938 C 54.988281 96.566406 54.921875 96.667969 54.855469 96.777344 C 54.796875 96.871094 54.734375 96.964844 54.675781 97.058594 C 54.546875 97.261719 54.414062 97.460938 54.28125 97.660156 C 54.0625 97.703125 54.0625 97.703125 53.796875 97.703125 C 53.640625 97.703125 53.640625 97.703125 53.484375 97.707031 C 53.371094 97.703125 53.257812 97.703125 53.140625 97.703125 C 53.023438 97.703125 52.902344 97.703125 52.777344 97.703125 C 52.375 97.703125 51.972656 97.703125 51.566406 97.699219 C 51.277344 97.699219 50.992188 97.699219 50.703125 97.699219 C 50.078125 97.699219 49.457031 97.699219 48.835938 97.695312 C 47.933594 97.695312 47.035156 97.691406 46.136719 97.691406 C 44.675781 97.691406 43.214844 97.6875 41.757812 97.6875 C 40.339844 97.683594 38.917969 97.679688 37.5 97.679688 C 37.414062 97.679688 37.328125 97.679688 37.238281 97.679688 C 36.796875 97.679688 36.359375 97.675781 35.921875 97.675781 C 32.285156 97.671875 28.644531 97.667969 25.007812 97.660156 C 25.136719 97.453125 25.269531 97.246094 25.402344 97.035156 C 25.472656 96.921875 25.546875 96.804688 25.621094 96.6875 C 25.898438 96.257812 26.199219 95.855469 26.511719 95.453125 C 27.070312 94.71875 27.609375 93.972656 28.140625 93.214844 C 28.570312 92.597656 29.011719 91.988281 29.453125 91.378906 C 29.949219 90.691406 30.445312 90 30.933594 89.304688 C 31.738281 88.160156 32.558594 87.027344 33.378906 85.894531 C 34.128906 84.859375 34.875 83.820312 35.613281 82.773438 C 36.113281 82.0625 36.621094 81.359375 37.128906 80.652344 C 37.515625 80.121094 37.898438 79.585938 38.28125 79.050781 C 38.726562 78.425781 39.179688 77.800781 39.628906 77.179688 C 40.132812 76.480469 40.632812 75.785156 41.125 75.082031 C 41.929688 73.9375 42.75 72.804688 43.574219 71.671875 C 44.324219 70.636719 45.070312 69.597656 45.804688 68.550781 C 46.242188 67.933594 46.683594 67.316406 47.125 66.703125 C 47.191406 66.613281 47.253906 66.527344 47.320312 66.4375 C 47.625 66.011719 47.929688 65.589844 48.242188 65.171875 C 48.324219 65.058594 48.324219 65.058594 48.410156 64.945312 C 48.515625 64.800781 48.617188 64.664062 48.722656 64.523438 C 49 64.144531 49.066406 64.015625 49.066406 63.527344 C 48.949219 63.289062 48.949219 63.289062 48.78125 63.058594 C 48.71875 62.96875 48.65625 62.878906 48.589844 62.785156 C 48.523438 62.691406 48.457031 62.59375 48.386719 62.496094 C 48.316406 62.394531 48.246094 62.296875 48.175781 62.195312 C 47.957031 61.886719 47.742188 61.582031 47.527344 61.273438 C 47.402344 61.097656 47.28125 60.921875 47.15625 60.75 C 46.863281 60.332031 46.570312 59.917969 46.277344 59.503906 C 45.988281 59.09375 45.699219 58.683594 45.40625 58.273438 C 45.347656 58.191406 45.292969 58.109375 45.230469 58.023438 C 44.699219 57.269531 44.167969 56.511719 43.640625 55.757812 C 43.199219 55.125 42.753906 54.496094 42.3125 53.867188 C 41.722656 53.035156 41.140625 52.203125 40.558594 51.371094 C 40.117188 50.738281 39.675781 50.109375 39.230469 49.480469 C 38.644531 48.652344 38.058594 47.820312 37.476562 46.984375 C 37.035156 46.355469 36.59375 45.726562 36.148438 45.097656 C 35.5625 44.265625 34.976562 43.433594 34.394531 42.601562 C 33.953125 41.96875 33.511719 41.339844 33.066406 40.710938 C 32.550781 39.980469 32.039062 39.25 31.527344 38.519531 C 30.777344 37.449219 30.027344 36.382812 29.273438 35.320312 C 28.800781 34.648438 28.324219 33.976562 27.851562 33.304688 C 27.742188 33.152344 27.742188 33.152344 27.632812 32.992188 C 27.40625 32.671875 27.179688 32.351562 26.957031 32.03125 C 26.886719 31.929688 26.8125 31.828125 26.742188 31.726562 C 26.675781 31.632812 26.609375 31.535156 26.539062 31.4375 C 26.480469 31.355469 26.421875 31.273438 26.363281 31.1875 C 26.175781 30.910156 26.007812 30.625 25.835938 30.339844 Z M 25.835938 30.339844 "/>
<path style=" stroke:none;fill-rule:nonzero;fill:rgb(1.176471%,1.176471%,1.176471%);fill-opacity:1;" d="M 55.347656 103.347656 C 55.761719 103.332031 56.175781 103.320312 56.59375 103.3125 C 56.710938 103.304688 56.824219 103.300781 56.945312 103.296875 C 57.753906 103.28125 58.292969 103.394531 58.902344 103.941406 C 59.421875 104.515625 59.453125 105.007812 59.4375 105.75 C 59.4375 105.847656 59.433594 105.949219 59.433594 106.050781 C 59.402344 107.011719 59.167969 107.675781 58.652344 108.480469 C 57.917969 109.167969 57.035156 109.527344 56.035156 109.523438 C 55.917969 109.523438 55.804688 109.523438 55.683594 109.523438 C 55.5625 109.519531 55.441406 109.519531 55.320312 109.519531 C 55.136719 109.519531 55.136719 109.519531 54.949219 109.515625 C 54.648438 109.515625 54.34375 109.511719 54.042969 109.511719 C 54.152344 108.9375 54.261719 108.363281 54.371094 107.792969 C 54.410156 107.597656 54.445312 107.40625 54.484375 107.210938 C 54.730469 105.910156 55.011719 104.628906 55.347656 103.347656 Z M 55.347656 103.347656 "/>
<path style=" stroke:none;fill-rule:nonzero;fill:rgb(1.176471%,1.176471%,1.176471%);fill-opacity:1;" d="M 33.539062 61.035156 C 34.074219 61.027344 34.605469 61.015625 35.15625 61.007812 C 35.324219 61.003906 35.488281 61 35.660156 60.996094 C 37.027344 60.980469 37.027344 60.980469 37.570312 61.511719 C 37.898438 61.855469 37.976562 62.089844 37.976562 62.5625 C 37.960938 63.128906 37.832031 63.449219 37.453125 63.882812 C 37.183594 64.105469 37.183594 64.105469 36.976562 64.238281 C 37.046875 64.316406 37.117188 64.394531 37.191406 64.472656 C 37.5 64.894531 37.65625 65.296875 37.828125 65.785156 C 37.859375 65.867188 37.890625 65.953125 37.921875 66.039062 C 38.0625 66.425781 38.183594 66.800781 38.28125 67.199219 C 37.851562 67.199219 37.421875 67.199219 36.976562 67.199219 C 36.894531 66.960938 36.894531 66.960938 36.808594 66.714844 C 36.734375 66.507812 36.660156 66.296875 36.585938 66.089844 C 36.546875 65.984375 36.511719 65.878906 36.472656 65.769531 C 36.4375 65.667969 36.402344 65.566406 36.363281 65.464844 C 36.332031 65.371094 36.296875 65.277344 36.265625 65.183594 C 36.152344 64.910156 36.152344 64.910156 35.792969 64.710938 C 35.441406 64.671875 35.089844 64.632812 34.726562 64.59375 C 34.726562 65.453125 34.726562 66.3125 34.726562 67.199219 C 34.335938 67.199219 33.945312 67.199219 33.539062 67.199219 C 33.539062 65.167969 33.539062 63.132812 33.539062 61.035156 Z M 33.539062 61.035156 "/>
<path style=" stroke:none;fill-rule:nonzero;fill:rgb(63.921569%,63.921569%,63.921569%);fill-opacity:1;" d="M 70.875 61.035156 C 74.285156 61.035156 74.285156 61.035156 74.863281 61.574219 C 75.375 62.246094 75.488281 62.683594 75.378906 63.527344 C 75.128906 64.140625 74.804688 64.558594 74.191406 64.828125 C 73.824219 64.871094 73.460938 64.863281 73.089844 64.851562 C 72.75 64.84375 72.410156 64.835938 72.058594 64.828125 C 72.058594 65.613281 72.058594 66.394531 72.058594 67.199219 C 71.667969 67.199219 71.277344 67.199219 70.875 67.199219 C 70.875 65.167969 70.875 63.132812 70.875 61.035156 Z M 70.875 61.035156 "/>
<path style=" stroke:none;fill-rule:nonzero;fill:rgb(1.960784%,1.960784%,1.960784%);fill-opacity:1;" d="M 110.222656 61.035156 C 111.589844 61.035156 112.960938 61.035156 114.371094 61.035156 C 114.371094 61.351562 114.371094 61.664062 114.371094 61.984375 C 113.394531 61.984375 112.414062 61.984375 111.40625 61.984375 C 111.40625 62.492188 111.40625 63.003906 111.40625 63.527344 C 112.269531 63.527344 113.128906 63.527344 114.015625 63.527344 C 114.015625 63.839844 114.015625 64.152344 114.015625 64.472656 C 113.195312 64.472656 112.371094 64.472656 111.527344 64.472656 C 111.527344 65.023438 111.527344 65.570312 111.527344 66.132812 C 112.503906 66.132812 113.480469 66.132812 114.488281 66.132812 C 114.488281 66.484375 114.488281 66.835938 114.488281 67.199219 C 113.082031 67.199219 111.671875 67.199219 110.222656 67.199219 C 110.222656 65.167969 110.222656 63.132812 110.222656 61.035156 Z M 110.222656 61.035156 "/>
<path style=" stroke:none;fill-rule:nonzero;fill:rgb(1.176471%,1.176471%,1.176471%);fill-opacity:1;" d="M 61.601562 103.335938 C 61.746094 103.335938 61.890625 103.335938 62.039062 103.335938 C 62.191406 103.335938 62.347656 103.335938 62.507812 103.335938 C 62.671875 103.339844 62.835938 103.339844 63 103.339844 C 63.164062 103.339844 63.332031 103.34375 63.496094 103.34375 C 63.902344 103.34375 64.304688 103.347656 64.710938 103.347656 C 64.605469 104.28125 64.605469 104.28125 64.472656 104.414062 C 64.316406 104.433594 64.15625 104.445312 63.996094 104.453125 C 63.898438 104.457031 63.804688 104.460938 63.707031 104.46875 C 63.554688 104.472656 63.554688 104.472656 63.398438 104.480469 C 63.25 104.488281 63.25 104.488281 63.09375 104.496094 C 62.84375 104.507812 62.589844 104.523438 62.339844 104.535156 C 62.261719 104.925781 62.183594 105.316406 62.105469 105.71875 C 62.769531 105.71875 63.433594 105.71875 64.117188 105.71875 C 64.039062 106.070312 63.960938 106.421875 63.882812 106.785156 C 63.175781 106.785156 62.472656 106.785156 61.75 106.785156 C 61.730469 106.949219 61.714844 107.113281 61.695312 107.28125 C 61.65625 107.679688 61.589844 108.050781 61.511719 108.445312 C 62.214844 108.445312 62.917969 108.445312 63.644531 108.445312 C 63.527344 109.394531 63.527344 109.394531 63.40625 109.511719 C 63.152344 109.523438 62.898438 109.523438 62.644531 109.523438 C 62.488281 109.523438 62.335938 109.523438 62.175781 109.523438 C 62.011719 109.519531 61.847656 109.519531 61.679688 109.519531 C 61.515625 109.519531 61.351562 109.515625 61.1875 109.515625 C 60.78125 109.515625 60.375 109.511719 59.96875 109.511719 C 60.425781 106.777344 60.425781 106.777344 60.714844 105.710938 C 60.847656 105.171875 60.941406 104.625 61.035156 104.078125 C 61.164062 103.351562 61.164062 103.351562 61.601562 103.335938 Z M 61.601562 103.335938 "/>
<path style=" stroke:none;fill-rule:nonzero;fill:rgb(1.568627%,1.568627%,1.568627%);fill-opacity:1;" d="M 65.304688 103.347656 C 65.695312 103.347656 66.085938 103.347656 66.488281 103.347656 C 66.574219 103.910156 66.632812 104.46875 66.671875 105.035156 C 66.675781 105.113281 66.679688 105.191406 66.6875 105.273438 C 66.703125 105.515625 66.71875 105.761719 66.734375 106.007812 C 66.746094 106.175781 66.753906 106.34375 66.765625 106.511719 C 66.792969 106.917969 66.820312 107.324219 66.84375 107.734375 C 66.886719 107.636719 66.929688 107.542969 66.976562 107.445312 C 67.140625 107.089844 67.304688 106.730469 67.46875 106.375 C 67.539062 106.21875 67.613281 106.066406 67.683594 105.914062 C 68.082031 105.039062 68.496094 104.179688 68.976562 103.347656 C 69.40625 103.347656 69.839844 103.347656 70.28125 103.347656 C 70.121094 103.867188 69.921875 104.328125 69.667969 104.808594 C 69.617188 104.914062 69.617188 104.914062 69.558594 105.023438 C 69.441406 105.246094 69.324219 105.472656 69.207031 105.695312 C 69.125 105.851562 69.046875 106.003906 68.964844 106.160156 C 68.382812 107.28125 67.792969 108.398438 67.199219 109.511719 C 66.730469 109.511719 66.261719 109.511719 65.777344 109.511719 C 65.671875 108.984375 65.613281 108.476562 65.570312 107.941406 C 65.5625 107.847656 65.554688 107.753906 65.546875 107.660156 C 65.53125 107.460938 65.515625 107.261719 65.5 107.066406 C 65.472656 106.765625 65.449219 106.464844 65.425781 106.167969 C 65.347656 105.226562 65.28125 104.292969 65.304688 103.347656 Z M 65.304688 103.347656 "/>
<path style=" stroke:none;fill-rule:nonzero;fill:rgb(2.352941%,2.352941%,2.352941%);fill-opacity:1;" d="M 74.191406 103.585938 C 74.128906 103.984375 74.066406 104.1875 73.835938 104.535156 C 73.71875 104.523438 73.601562 104.511719 73.480469 104.5 C 73.332031 104.484375 73.179688 104.472656 73.023438 104.460938 C 72.871094 104.445312 72.71875 104.433594 72.5625 104.417969 C 72.371094 104.417969 72.371094 104.417969 72.179688 104.414062 C 71.910156 104.636719 71.910156 104.636719 71.882812 104.980469 C 71.960938 105.503906 72.246094 105.710938 72.636719 106.03125 C 73.542969 106.785156 73.542969 106.785156 73.640625 107.390625 C 73.652344 108.039062 73.582031 108.550781 73.125 109.035156 C 72.339844 109.558594 71.566406 109.710938 70.636719 109.628906 C 70.300781 109.535156 70.007812 109.417969 69.6875 109.273438 C 69.6875 108.882812 69.6875 108.492188 69.6875 108.089844 C 69.789062 108.128906 69.890625 108.164062 69.996094 108.207031 C 70.417969 108.332031 70.761719 108.359375 71.199219 108.355469 C 71.332031 108.355469 71.46875 108.355469 71.605469 108.355469 C 71.957031 108.359375 71.957031 108.359375 72.179688 108.089844 C 72.253906 107.8125 72.253906 107.8125 72.179688 107.496094 C 71.949219 107.25 71.738281 107.046875 71.480469 106.835938 C 70.5625 106.0625 70.5625 106.0625 70.480469 105.410156 C 70.46875 104.707031 70.480469 104.242188 70.992188 103.703125 C 71.980469 102.9375 73.09375 103.128906 74.191406 103.585938 Z M 74.191406 103.585938 "/>
<path style=" stroke:none;fill-rule:nonzero;fill:rgb(0.392157%,0.392157%,0.392157%);fill-opacity:1;" d="M 13.394531 61.035156 C 14.957031 61.035156 16.519531 61.035156 18.132812 61.035156 C 18.132812 61.351562 18.132812 61.664062 18.132812 61.984375 C 17.546875 61.984375 16.960938 61.984375 16.355469 61.984375 C 16.355469 63.707031 16.355469 65.425781 16.355469 67.199219 C 15.964844 67.199219 15.574219 67.199219 15.171875 67.199219 C 15.171875 65.480469 15.171875 63.757812 15.171875 61.984375 C 14.582031 61.984375 13.996094 61.984375 13.394531 61.984375 C 13.394531 61.671875 13.394531 61.359375 13.394531 61.035156 Z M 13.394531 61.035156 "/>
<path style=" stroke:none;fill-rule:nonzero;fill:rgb(1.176471%,1.176471%,1.176471%);fill-opacity:1;" d="M 90.902344 61.035156 C 91.292969 61.035156 91.6875 61.035156 92.089844 61.035156 C 92.089844 62.71875 92.089844 64.402344 92.089844 66.132812 C 93.027344 66.132812 93.964844 66.132812 94.933594 66.132812 C 94.933594 66.484375 94.933594 66.835938 94.933594 67.199219 C 93.605469 67.199219 92.273438 67.199219 90.902344 67.199219 C 90.902344 65.167969 90.902344 63.132812 90.902344 61.035156 Z M 90.902344 61.035156 "/>
<path style=" stroke:none;fill-rule:nonzero;fill:rgb(65.098039%,65.098039%,65.098039%);fill-opacity:1;" d="M 53.6875 61.035156 C 54.078125 61.035156 54.472656 61.035156 54.875 61.035156 C 54.875 63.070312 54.875 65.105469 54.875 67.199219 C 54.484375 67.199219 54.09375 67.199219 53.6875 67.199219 C 53.6875 65.167969 53.6875 63.132812 53.6875 61.035156 Z M 53.6875 61.035156 "/>
<path style=" stroke:none;fill-rule:nonzero;fill:rgb(63.529412%,63.529412%,63.529412%);fill-opacity:1;" d="M 56.414062 104.414062 C 57.464844 104.378906 57.464844 104.378906 57.835938 104.652344 C 58.242188 105.257812 58.136719 105.960938 58.074219 106.667969 C 57.894531 107.351562 57.617188 107.824219 57.007812 108.207031 C 56.9375 108.257812 56.867188 108.304688 56.792969 108.355469 C 56.390625 108.492188 56.011719 108.457031 55.585938 108.445312 C 55.679688 107.695312 55.835938 106.964844 56 106.230469 C 56.027344 106.105469 56.054688 105.984375 56.082031 105.859375 C 56.292969 104.890625 56.292969 104.890625 56.414062 104.414062 Z M 56.414062 104.414062 "/>
<path style=" stroke:none;fill-rule:nonzero;fill:rgb(1.568627%,1.568627%,1.568627%);fill-opacity:1;" d="M 72.058594 61.984375 C 73.550781 61.953125 73.550781 61.953125 73.957031 62.222656 C 74.140625 62.59375 74.15625 63.003906 74.074219 63.40625 C 73.882812 63.671875 73.882812 63.671875 73.601562 63.882812 C 73.078125 63.945312 72.585938 63.902344 72.058594 63.882812 C 72.058594 63.253906 72.058594 62.628906 72.058594 61.984375 Z M 72.058594 61.984375 "/>
<path style=" stroke:none;fill-rule:nonzero;fill:rgb(63.529412%,63.529412%,63.529412%);fill-opacity:1;" d="M 34.726562 61.984375 C 34.96875 61.976562 35.214844 61.96875 35.464844 61.964844 C 35.671875 61.957031 35.671875 61.957031 35.882812 61.949219 C 36.296875 61.988281 36.457031 62.039062 36.742188 62.339844 C 36.796875 62.859375 36.796875 63.085938 36.503906 63.527344 C 35.921875 63.71875 35.335938 63.652344 34.726562 63.644531 C 34.726562 63.097656 34.726562 62.550781 34.726562 61.984375 Z M 34.726562 61.984375 "/>
</g>
</svg>
